#!OML:ASF F:\VICON\USERDATA\INSTALL\rory3\rory3.ASF
:FULLY-SPECIFIED
:DEGREES
78
root -0.0023689850572026494 17.41435847029491 47.530346281496726 2.50623976086362 1.3244879226961803 0.24524984424756457
lfemur -0.3382746764966509 -2.1030053273547793 -28.0142840528466
ltibia 39.710106640129126
lfoot -17.200187229409877 -3.523380588782625
ltoes -3.0668953806440236
rfemur -46.30612698949382 -6.378796679514897 24.13974742761414
rtibia 84.96004620280567
rfoot 4.195744246232442 -12.090757175474845
rtoes -0.6398503926411161
lowerback 16.157744884966956 0.11655742478414066 -2.0732981035198907
upperback -0.1226712843609934 -0.001159541431746458 0.730490606524683
thorax -9.544152391379505 0.11142288975938486 2.801239759168126
lowerneck -19.71057838678626 -2.9776571377032317 -3.348171565060002
upperneck 12.785611602551752 -3.9359767970360164 4.432069414705332
head 7.413307414639508 -1.501041336678071 1.4953258599282788
lclavicle -1.3872316670833077e-15 2.0314031528022387e-15
lhumerus -38.52322269197552 -17.173048048798346 96.53038017291291
lradius 105.7692937840498
lwrist 35.67883181624675
lhand -26.161675797851867 0.5952386508265017
lfingers 7.12502
lthumb 0.38965440072645463 30.577801611494188
rclavicle -1.3872316670833077e-15 2.0314031528022387e-15
rhumerus -53.55444793061503 10.226949984014576 -99.14959172700401
rradius 113.38644523163033
rwrist -11.322736020306479
rhand -15.250569336088827 39.781351306926894
rfingers 7.12502
rthumb 10.923197267293888 10.17279909048651
79
root -0.06520160551877552 17.302077848201098 49.20453363320133 3.6630281197735797 2.550466316300106 0.728733447287853
lfemur 6.385933855532999 -1.4614438351653651 -28.533294146330746
ltibia 33.765939237383385
lfoot -17.580268183332834 -4.03774821057025
ltoes -5.209778422317801
rfemur -47.09821279149804 -2.7527990594410467 22.82506264052694
rtibia 61.9973138140623
rfoot 3.7996256811622313 -16.516158396657502
rtoes -3.9651847205548134
lowerback 15.408717330661938 -0.30736410334931463 -2.940674443607975
upperback -0.38218022928337403 -0.7001523076504133 0.8120298627202214
thorax -9.342084084576811 -0.17629737765186726 3.680314161601542
lowerneck -19.893497966615755 -3.0629082165198644 -3.4716448420630392
upperneck 12.535162666726347 -4.063400703823473 4.715799850070104
head 7.3744507160186545 -1.5249397223735275 1.5916265824067373
lclavicle -1.1511345117867232e-15 2.202652174225885e-15
lhumerus -32.17123779420044 -19.442380458204557 96.20091983995026
lradius 109.94299594090337
lwrist 36.733314491876286
lhand -26.01542854817475 1.180556148250957
lfingers 7.12502
lthumb 0.5308473660070551 31.161714855376736
rclavicle -1.1511345117867232e-15 2.202652174225885e-15
rhumerus -55.49206362475915 10.014054169705972 -98.76956864470961
rradius 112.63314562244986
rwrist -11.192438760037994
rhand -14.999890084613693 40.19962831342773
rfingers 7.12502
rthumb 11.165056527902768 10.603966598998372
80
root -0.15083477094852052 17.095313924687595 50.630095464596344 4.752139620651083 3.635547995951001 1.0655453967604505
lfemur 13.071768658141623 -1.3958413088484547 -28.7323680838073
ltibia 28.23076305507769
lfoot -17.490693646715282 -4.7758110657443105
ltoes -9.289236936341794
rfemur -46.46601215059263 0.9778586727314069 21.638404712667832
rtibia 42.218638299732504
rfoot 3.681270657330761 -19.20619386480931
rtoes -7.515751078898392
lowerback 14.49057069106903 -0.6714716924642989 -3.6583325808148137
upperback -0.6214104736804533 -1.2887856474525696 0.9255994630752983
thorax -9.078695110010365 -0.4194875181724401 4.443566102996759
lowerneck -20.130314104542833 -3.0487804841739417 -3.5119750756492185
upperneck 12.402499977131523 -4.081159014151188 4.859461052012446
head 7.362224693953786 -1.5003099161479876 1.6381107332689004
lclavicle -1.0422024612624325e-15 2.281664169936648e-15
lhumerus -26.729253985276582 -21.173344863540002 95.82368252252645
lradius 113.82595725098264
lwrist 37.559996550652244
lhand -26.13912300662211 1.2130023333677444
lfingers 7.12502
lthumb 0.41138498814678504 31.190467743527318
rclavicle -1.0422024612624325e-15 2.281664169936648e-15
rhumerus -57.397667280742816 9.026643167165684 -97.82645525847778
rradius 110.99396165313962
rwrist -10.550156790527508
rhand -14.980943076975315 40.58557722235191
rfingers 7.12502
rthumb 11.183350956442197 10.979508560171869
81
root -0.2456833598494306 16.821688946226477 51.44288796758651 5.37937862836827 4.340705346689522 1.1472012442003585
lfemur 18.518804901871086 -2.21308901725965 -28.58748709452498
ltibia 26.284442672846428
lfoot -16.900810532670295 -5.6662841285208945
ltoes -15.10303990934305
rfemur -45.6929606988205 3.0194180817089986 21.293880400736633
rtibia 32.90952605788526
rfoot 4.303183102276318 -18.13940589526881
rtoes -10.991257442496375
lowerback 13.86691954325264 -0.9289458272091515 -3.986885294038304
upperback -0.742058793664996 -1.6759439486365229 1.1601125146693487
thorax -8.877334162337807 -0.5824534410745871 4.981665074421693
lowerneck -20.457901605937998 -2.954681413097586 -3.493970859109904
upperneck 12.463680943979373 -3.953758154309217 4.801366899417472
head 7.399140123860561 -1.4351948431612804 1.6262189195680947
lclavicle -9.378253884514794e-16 2.3573722943977117e-15
lhumerus -23.1163104632182 -22.042419863910172 95.63075471270969
lradius 116.73496090495773
lwrist 38.08030445046491
lhand -26.596345832542454 0.6043289797239291
lfingers 7.12502
lthumb -0.030138852396369487 30.576931798265388
rclavicle -9.378253884514794e-16 2.3573722943977117e-15
rhumerus -59.39118086777951 7.308661430078473 -96.37191355546368
rradius 108.71224893448522
rwrist -9.461531245021636
rhand -15.293726415649733 40.82507351425723
rfingers 7.12502
rthumb 10.881578161743318 11.183355950242296
82
root -0.33464814377936103 16.613104120697958 51.5415171318341 5.383472780383288 4.517363182424853 0.8647813323603932
lfemur 21.509128654421154 -3.587570210364324 -28.100057365647896
ltibia 29.11326420072176
lfoot -14.31973511300394 -6.989654641710371
ltoes -21.47144889293933
rfemur -45.66125128252634 2.9646732563201184 21.981964213759955
rtibia 34.96133552419525
rfoot 6.114087460586216 -14.08846326230725
rtoes -11.653172940141069
lowerback 13.651315540413949 -1.0857553269156168 -3.8333014171950124
upperback -0.7733229069195953 -1.8626460531602143 1.535886574308936
thorax -8.809913082486855 -0.6662156213076927 5.1942484282475245
lowerneck -20.736213798435042 -2.753581705039795 -3.439369651619819
upperneck 12.734407515154972 -3.6150869926246516 4.510677143851444
head 7.474088670124257 -1.313324647144905 1.560631115803774
lclavicle -1.0513215621955904e-15 2.2750497967562957e-15
lhumerus -22.127145256319835 -21.871419656444147 95.76009650416047
lradius 118.50256181892152
lwrist 38.27542922385834
lhand -27.219084122649363 -0.2508699067194635
lfingers 7.12502
lthumb -0.6314981006577185 29.716922163266705
rclavicle -1.0513215621955904e-15 2.2750497967562957e-15
rhumerus -61.61723236830993 5.090830553900105 -94.64067433833549
rradius 106.0773102287116
rwrist -8.116316458118312
rhand -15.702844261660692 40.859794123840615
rfingers 7.12502
rthumb 10.486850959913204 11.177486035964883
83
root -0.3988292672349397 16.589357255906407 51.49669198106345 4.965508553218902 4.372954188951563 0.21784540951429854
lfemur 21.925277806640075 -4.834922248419255 -26.910711305664492
ltibia 36.559345741815356
lfoot -7.427102914170774 -9.0138542005201
ltoes -25.88285352373314
rfemur -45.149796691550605 2.005189739586061 23.6122309429013
rtibia 43.82407175120993
rfoot 8.855515408614316 -9.014735740497533
rtoes -6.863991148866576
lowerback 13.700239795641268 -1.1442841014333385 -3.090598453355282
upperback -0.8280508660717072 -1.8450733520481637 2.0525975924310798
thorax -8.86107772446301 -0.6694902358418949 5.121913606717087
lowerneck -20.643417934673103 -2.4175362285951705 -3.36217927045958
upperneck 13.24063567012374 -3.040914240859531 4.093678351954899
head 7.566312730125705 -1.1212935321316615 1.480924901891035
lclavicle -8.2986019390710185e-16 2.4356830042159997e-15
lhumerus -23.45272101267765 -20.709765515048538 96.25031049915401
lradius 119.543253357985
lwrist 38.24547588954184
lhand -27.557804887381845 -0.7423754351997089
lfingers 7.12502
lthumb -0.9585911862645589 29.22125643425015
rclavicle -8.2986019390710185e-16 2.4356830042159997e-15
rhumerus -63.81769830213017 2.833888056310535 -92.72644206646933
rradius 103.60887938095676
rwrist -6.725069356590311
rhand -15.912518745184679 40.72745976087664
rfingers 7.12502
rthumb 10.28456365910489 11.033171654183732
84
root -0.4556442458868124 16.774409687195675 50.32077633746833 4.284523673662589 4.024858466440899 -0.8622697793847773
lfemur 18.28639218169105 -5.504731671103217 -25.042241149666474
ltibia 47.268977390496595
lfoot 3.8482069824378407 -12.00796124499583
ltoes -25.844543836675314
rfemur -43.620878653824846 1.162473494719959 25.63802803191857
rtibia 52.29923150133661
rfoot 10.433405902330355 -5.155817107163778
rtoes 1.8182029167656268
lowerback 13.847562001408672 -1.2002727027987046 -1.9673671327453761
upperback -1.015675228088782 -1.777438644984222 2.60070517337437
thorax -9.050169776344305 -0.6554094837717971 4.679201331115168
lowerneck -20.10304268425623 -2.1424885258100135 -3.2982470737497334
upperneck 13.838184265354034 -2.5619337314173176 3.6826732596967506
head 7.628634176972722 -0.9899719612072746 1.4037234466385673
lclavicle -1.2936090156275835e-15 2.0993107452578286e-15
lhumerus -27.22744387072944 -19.439951359893943 96.92751371859096
lradius 119.57942658129465
lwrist 37.82138853908751
lhand -27.29311059515873 -0.715793989643408
lfingers 7.12502
lthumb -0.7029647061609319 29.247219419897537
rclavicle -1.2936090156275835e-15 2.0993107452578286e-15
rhumerus -65.91281553050108 0.949225760670914 -91.2295341766108
rradius 101.7392263429773
rwrist -5.8120071449880255
rhand -15.903509418977054 40.448573223605926
rfingers 7.12502
rthumb 10.293262481210295 10.779036516664917
